<svg width="22" height="22" viewBox="0 0 22 22" fill="none" xmlns="http://www.w3.org/2000/svg">
<path d="M21.5 11C21.5 11.9788 20.7959 12.7128 20.1744 13.3606C19.8209 13.73 19.4553 14.1106 19.3175 14.4453C19.19 14.7519 19.1825 15.26 19.175 15.7522C19.1609 16.6672 19.1459 17.7041 18.425 18.425C17.7041 19.1459 16.6672 19.1609 15.7522 19.175C15.26 19.1825 14.7519 19.19 14.4453 19.3175C14.1106 19.4553 13.73 19.8209 13.3606 20.1744C12.7128 20.7959 11.9788 21.5 11 21.5C10.0212 21.5 9.28719 20.7959 8.63937 20.1744C8.27 19.8209 7.88938 19.4553 7.55469 19.3175C7.24813 19.19 6.74 19.1825 6.24781 19.175C5.33281 19.1609 4.29594 19.1459 3.575 18.425C2.85406 17.7041 2.83906 16.6672 2.825 15.7522C2.8175 15.26 2.81 14.7519 2.6825 14.4453C2.54469 14.1106 2.17906 13.73 1.82562 13.3606C1.20406 12.7128 0.5 11.9788 0.5 11C0.5 10.0212 1.20406 9.28719 1.82562 8.63937C2.17906 8.27 2.54469 7.88938 2.6825 7.55469C2.81 7.24813 2.8175 6.74 2.825 6.24781C2.83906 5.33281 2.85406 4.29594 3.575 3.575C4.29594 2.85406 5.33281 2.83906 6.24781 2.825C6.74 2.8175 7.24813 2.81 7.55469 2.6825C7.88938 2.54469 8.27 2.17906 8.63937 1.82562C9.28719 1.20406 10.0212 0.5 11 0.5C11.9788 0.5 12.7128 1.20406 13.3606 1.82562C13.73 2.17906 14.1106 2.54469 14.4453 2.6825C14.7519 2.81 15.26 2.8175 15.7522 2.825C16.6672 2.83906 17.7041 2.85406 18.425 3.575C19.1459 4.29594 19.1609 5.33281 19.175 6.24781C19.1825 6.74 19.19 7.24813 19.3175 7.55469C19.4553 7.88938 19.8209 8.27 20.1744 8.63937C20.7959 9.28719 21.5 10.0212 21.5 11Z" fill="#D9D9D9"/>
</svg>
